<svg viewBox="0 0 400 400" xmlns="http://www.w3.org/2000/svg">
  <defs>
    <linearGradient id="bgGrad2" x1="0" y1="0" x2="1" y2="1">
      <stop offset="0%" stop-color="#16A34A" stop-opacity="0.12"/>
      <stop offset="100%" stop-color="#16A34A" stop-opacity="0.03"/>
    </linearGradient>
  </defs>
  <circle cx="200" cy="200" r="170" fill="url(#bgGrad2)"/>

  <!-- card stack -->
  <rect x="70" y="150" width="220" height="130" rx="18" fill="#0F1620"/>
  <rect x="70" y="150" width="220" height="34" rx="18" fill="#16A34A"/>
  <rect x="70" y="166" width="220" height="18" fill="#16A34A"/>
  <circle cx="96" cy="167" r="9" fill="#FFFFFF" opacity="0.9"/>
  <circle cx="118" cy="167" r="9" fill="#FFFFFF" opacity="0.5"/>
  <rect x="92" y="220" width="90" height="8" rx="4" fill="#8A9488"/>
  <rect x="92" y="240" width="60" height="8" rx="4" fill="#5B6660"/>

  <!-- up arrow / income -->
  <g transform="translate(210,205)">
    <rect x="0" y="0" width="70" height="46" rx="12" fill="#16A34A" opacity="0.15"/>
    <path d="M18 30 L18 16 M18 16 L11 23 M18 16 L25 23" stroke="#16A34A" stroke-width="4" stroke-linecap="round" stroke-linejoin="round"/>
    <rect x="34" y="14" width="26" height="6" rx="3" fill="#16A34A"/>
    <rect x="34" y="26" width="18" height="6" rx="3" fill="#16A34A" opacity="0.5"/>
  </g>

  <!-- bar chart floating above -->
  <g transform="translate(120,60)">
    <rect x="0" y="60" width="20" height="50" rx="4" fill="#16A34A" opacity="0.35"/>
    <rect x="28" y="36" width="20" height="74" rx="4" fill="#16A34A" opacity="0.6"/>
    <rect x="56" y="12" width="20" height="98" rx="4" fill="#16A34A"/>
    <rect x="84" y="44" width="20" height="66" rx="4" fill="#16A34A" opacity="0.75"/>
    <path d="M6 58 L34 34 L62 30 L90 10" stroke="#FFFFFF" stroke-width="4" stroke-linecap="round" fill="none"/>
    <circle cx="90" cy="10" r="6" fill="#FFFFFF"/>
  </g>

  <!-- small down arrow / expense chip -->
  <g transform="translate(96,258)">
    <rect x="0" y="0" width="62" height="40" rx="12" fill="#EF4444" opacity="0.15"/>
    <path d="M14 12 L14 26 M14 26 L8 20 M14 26 L20 20" stroke="#EF4444" stroke-width="4" stroke-linecap="round" stroke-linejoin="round"/>
    <rect x="30" y="12" width="22" height="5" rx="2.5" fill="#EF4444" opacity="0.7"/>
    <rect x="30" y="22" width="14" height="5" rx="2.5" fill="#EF4444" opacity="0.4"/>
  </g>
</svg>
